<svg width="39" height="40" viewBox="0 0 39 40" fill="none" xmlns="http://www.w3.org/2000/svg">
<path fill-rule="evenodd" clip-rule="evenodd" d="M8.35429 1.41973C15.596 0.617496 22.9042 0.617496 30.146 1.41973C34.1022 1.86139 37.2918 4.97598 37.7564 8.94681C38.6146 16.2899 38.6146 23.7079 37.7564 31.051C37.2918 35.0218 34.1022 38.1364 30.148 38.5801C22.9056 39.3825 15.5967 39.3825 8.35429 38.5801C4.39804 38.1364 1.20846 35.0218 0.743875 31.0531C-0.114495 23.7093 -0.114495 16.2906 0.743875 8.94681C1.20846 4.97598 4.39804 1.86139 8.35429 1.41973ZM27.4418 16.1301V27.2906H24.6001V16.1301H27.4418ZM24.4418 13.0135C24.4418 12.1426 25.0814 11.4781 26.021 11.4781C26.9855 11.4781 27.5814 12.1426 27.6043 13.0135C27.6043 13.8614 26.9835 14.526 26.0001 14.526C25.0605 14.526 24.4418 13.8614 24.4418 13.0135ZM20.571 27.2906L19.173 22.9135H14.2689L12.9397 27.2906H10.0293L14.9793 11.8447H18.5772L23.596 27.2906H20.571Z" fill="#202020"/>
<path d="M15.7918 17.5417L14.6001 21.3458H18.5647L17.3501 17.5417C17.1084 16.7813 16.898 15.9458 16.7043 15.1813L16.5709 14.6542H16.5251C16.4473 14.9625 16.3682 15.2854 16.2876 15.6229C16.1334 16.2688 15.973 16.9396 15.7918 17.5417Z" fill="#202020"/>
</svg>
