<svg width="38" height="38" viewBox="0 0 38 38" fill="none" xmlns="http://www.w3.org/2000/svg">
<path d="M6.6499 0.25C4.9923 0.25 3.40259 0.90848 2.23049 2.08058C1.05838 3.25269 0.399902 4.8424 0.399902 6.5V31.5C0.399902 33.1576 1.05838 34.7473 2.23049 35.9194C3.40259 37.0915 4.9923 37.75 6.6499 37.75H31.6499C33.3075 37.75 34.8972 37.0915 36.0693 35.9194C37.2414 34.7473 37.8999 33.1576 37.8999 31.5V6.5C37.8999 4.8424 37.2414 3.25269 36.0693 2.08058C34.8972 0.90848 33.3075 0.25 31.6499 0.25H6.6499ZM21.9291 27.4479C23.4291 28.6562 24.9263 29.2521 26.4207 29.2354C27.3374 29.2354 28.0402 29.0674 28.5291 28.7312C28.7567 28.5835 28.9419 28.379 29.0665 28.1379C29.191 27.8968 29.2507 27.6274 29.2395 27.3562C29.2427 27.0605 29.1809 26.7676 29.0585 26.4984C28.9361 26.2291 28.7561 25.99 28.5312 25.7979C28.0423 25.3715 27.1173 24.9438 25.7562 24.5146C24.1214 24.0424 22.861 23.4312 21.9749 22.6812C21.1055 21.9312 20.6624 20.8847 20.6457 19.5417C20.6457 18.2736 21.1957 17.2118 22.2957 16.3562C23.3652 15.5007 24.7332 15.0729 26.3999 15.0729C28.7221 15.0729 30.5853 15.6382 31.9895 16.7687L30.3853 19.2667C29.8077 18.8176 29.1451 18.4901 28.4374 18.3042C27.8015 18.0911 27.1371 17.9752 26.4666 17.9604C25.6749 17.9604 25.0409 18.1056 24.5645 18.3958C24.0923 18.6875 23.8562 19.0694 23.8562 19.5417C23.8562 20.0611 24.1457 20.5042 24.7249 20.8708C25.3082 21.2236 26.3013 21.6132 27.7041 22.0396C29.3999 22.5437 30.6068 23.216 31.3249 24.0562C32.043 24.8965 32.402 25.966 32.402 27.2646C32.402 28.5937 31.8902 29.7396 30.8666 30.7021C29.8582 31.6493 28.3916 32.1458 26.4666 32.1917C23.9457 32.1917 21.8374 31.4354 20.1416 29.9229L21.9291 27.4479ZM10.4082 28.7771C10.8971 29.0826 11.4853 29.2354 12.1728 29.2354C12.8909 29.2354 13.4867 29.0292 13.9603 28.6167C14.4325 28.1889 14.6693 27.4479 14.6707 26.3937V15.3479H17.7645V26.9896C17.7187 28.7924 17.1992 30.091 16.2062 30.8854C15.6628 31.3448 15.031 31.688 14.3499 31.8937C13.7183 32.0861 13.0622 32.1864 12.402 32.1917C11.2562 32.1917 10.2402 31.9931 9.35407 31.5958C8.40685 31.1694 7.6124 30.4132 6.97074 29.3271L9.1249 27.5625C9.52074 28.0972 9.94851 28.5021 10.4082 28.7771Z" fill="#202020"/>
</svg>
