<svg width="40" height="50" viewBox="0 0 40 50" fill="none" xmlns="http://www.w3.org/2000/svg">
<path d="M13.8814 21.9792L12.6897 25.7833H16.6543L15.4397 21.9792C15.2025 21.1985 14.9871 20.4114 14.7939 19.6188L14.6605 19.0917H14.6147L14.3772 20.0604C14.223 20.7063 14.0647 21.3771 13.8814 21.9792ZM26.9689 22.8042C25.2272 22.8042 24.4939 24.3854 24.3793 25.5313H29.2834C29.3043 24.5 28.8459 22.8042 26.9689 22.8042Z" fill="#202020"/>
<path fill-rule="evenodd" clip-rule="evenodd" d="M9.20415 6.42083C16.4459 5.6186 23.7541 5.6186 30.9958 6.42083C34.9521 6.86249 38.1416 9.97708 38.6062 13.9479C39.4644 21.291 39.4644 28.709 38.6062 36.0521C38.1416 40.0229 34.9521 43.1375 30.9979 43.5812C23.7555 44.3836 16.4466 44.3836 9.20415 43.5812C5.2479 43.1375 2.05831 40.0229 1.59373 36.0542C0.735359 28.7104 0.735359 21.2917 1.59373 13.9479C2.05831 9.97708 5.2479 6.86249 9.20415 6.42083ZM18.5333 32.2917L17.1375 27.9146H12.2291L10.9021 32.2917H7.99165L12.9416 16.8458H16.5396L21.5604 32.2917H18.5333ZM31.9416 26.3104C31.9416 26.8375 31.8958 27.25 31.85 27.5021H24.3791C24.4479 29.5187 26.0291 30.3896 27.8166 30.3896C29.1229 30.3896 30.0625 30.2062 30.9104 29.8854L31.3229 31.8333C30.3604 32.2229 29.0312 32.5437 27.4271 32.5437C23.8062 32.5437 21.675 30.2979 21.675 26.8833C21.675 23.7896 23.5541 20.8792 27.1291 20.8792C30.7729 20.8792 31.9416 23.8583 31.9416 26.3104Z" fill="#202020"/>
</svg>
