<svg width="39" height="44" viewBox="0 0 39 44" fill="none" xmlns="http://www.w3.org/2000/svg">
<path d="M11.172 28.7602C10.6703 28.7262 10.1006 28.6922 9.45432 28.6497C9.17371 28.9983 8.8931 29.364 8.8931 29.7976C8.8931 31.3708 14.4628 31.3708 14.4628 29.6701C14.4628 28.9643 13.8336 28.9303 11.1635 28.7602H11.172ZM11.8353 18.7347C9.08868 18.7347 8.96963 22.5187 11.7758 22.5187C14.5394 22.5187 14.4713 18.7347 11.8353 18.7347ZM33.553 2.95239H6.34208C3.34038 2.95239 0.899902 5.39287 0.899902 8.39457V35.6055C0.899902 38.6072 3.34038 41.0476 6.34208 41.0476H33.553C36.5547 41.0476 38.9951 38.6072 38.9951 35.6055V8.39457C38.9951 5.39287 36.5547 2.95239 33.553 2.95239ZM21.6397 14.8742C20.4067 14.8742 19.6924 14.1599 19.6924 12.9269C19.6924 11.6939 20.4067 11.0306 21.6397 11.0306C22.8897 11.0306 23.604 11.6939 23.604 12.9269C23.604 14.1599 22.8897 14.8742 21.6397 14.8742ZM13.621 16.8129H17.8302V18.6497L15.8404 18.8027C16.2315 19.2959 16.6397 19.9932 16.6397 20.9881C16.6397 25.1293 11.7758 25.0017 10.3302 24.5935L9.61589 25.733C10.0411 25.7585 10.4492 25.784 10.8319 25.801C15.6193 26.0731 17.6771 26.1922 17.6771 29.0748C17.6771 31.5578 15.4917 32.9609 11.7332 32.9609C7.82167 32.9609 6.33358 31.9745 6.33358 30.2653C6.33358 29.2959 6.76725 28.7772 7.52405 28.0629C6.80977 27.7653 6.57167 27.2211 6.57167 26.6344C6.57167 25.818 7.20092 25.2483 8.52745 24.0323L8.54446 24.0153C7.49004 23.4966 6.69072 22.3742 6.69072 20.7755C6.69072 16.3878 11.5036 16.2432 13.6295 16.7959L13.621 16.8129ZM23.9016 26.0051L25.007 26.1582V27.8674H18.8506V26.1582C19.0802 26.1242 19.2758 26.0986 19.4373 26.0816C20.2792 25.9796 20.2962 25.9711 20.2962 25.5714V19.2194C20.2962 18.8453 20.2196 18.8197 19.4373 18.5561C19.2758 18.4966 19.0802 18.4371 18.8506 18.3521L19.0887 16.6004H23.5615V25.5714C23.5615 25.9201 23.5785 25.9626 23.9101 26.0051H23.9016ZM32.9662 25.1208L33.553 27.017C32.6261 27.4762 31.2656 27.8844 30.0326 27.8844C27.4645 27.8844 26.4866 26.8469 26.4866 24.4065V18.7432C26.4866 18.6752 26.4866 18.6242 26.4696 18.5901C26.4016 18.4881 26.1125 18.5306 24.803 18.5306V16.6089C26.6992 16.3963 27.456 15.4439 27.6941 13.0884H29.7519C29.7519 15.9201 29.7009 16.3197 29.8115 16.3708C29.837 16.3793 29.871 16.3708 29.922 16.3708H32.9662V18.5306H29.7519V23.7687C29.7349 24.3044 29.6754 26.3538 32.9747 25.1208H32.9662Z" fill="#202020"/>
</svg>
