<svg width="40" height="50" viewBox="0 0 40 50" fill="none" xmlns="http://www.w3.org/2000/svg">
<path fill-rule="evenodd" clip-rule="evenodd" d="M9.20415 6.42083C16.4459 5.6186 23.7541 5.6186 30.9958 6.42083C34.9521 6.86249 38.1416 9.97708 38.6062 13.9479C39.4644 21.291 39.4644 28.709 38.6062 36.0521C38.1416 40.0229 34.9521 43.1375 30.9979 43.5812C23.7555 44.3836 16.4466 44.3836 9.20415 43.5812C5.2479 43.1375 2.05831 40.0229 1.59373 36.0542C0.735359 28.7104 0.735359 21.2917 1.59373 13.9479C2.05831 9.97708 5.2479 6.86249 9.20415 6.42083ZM21.6166 32.2917H12.45V16.8458H15.2687V29.9312H21.6166V32.2917ZM25.5396 32.2917H22.7208V24.7292C22.7208 23.2167 22.6979 22.1396 22.6291 21.1312H25.0812L25.1729 23.2625H25.2646C25.8146 21.6812 27.1187 20.8792 28.3125 20.8792C28.5875 20.8792 28.7479 20.9021 28.9771 20.9479V23.6062C28.7058 23.5483 28.4294 23.5176 28.1521 23.5146C26.7979 23.5146 25.8812 24.3854 25.6312 25.6458C25.5742 25.9327 25.5435 26.2242 25.5396 26.5167V32.2917Z" fill="#202020"/>
</svg>
