<svg width="38" height="44" viewBox="0 0 38 44" fill="none" xmlns="http://www.w3.org/2000/svg">
<path d="M37.8999 8.60714C37.8999 5.65234 35.4976 3.25 32.5428 3.25H5.75705C2.80225 3.25 0.399902 5.65234 0.399902 8.60714V35.3929C0.399902 38.3477 2.80225 40.75 5.75705 40.75H32.5428C35.4976 40.75 37.8999 38.3477 37.8999 35.3929V8.60714ZM22.6488 34.6981C22.6488 34.5474 22.6488 34.1959 22.6572 33.7271C22.6655 32.7729 22.6655 31.3164 22.6655 30.0692C22.6655 28.7634 22.2303 27.9347 21.7197 27.4994C24.8168 27.1563 28.0813 26.7294 28.0813 21.3806C28.0813 19.8571 27.5372 19.0954 26.6499 18.1161C26.7922 17.7561 27.2693 16.2746 26.5076 14.3493C25.3441 13.9894 22.6823 15.8477 22.6823 15.8477C21.5774 15.5379 20.3804 15.3789 19.2001 15.3789C18.0199 15.3789 16.8229 15.5379 15.718 15.8477C15.718 15.8477 13.0562 13.9894 11.8926 14.3493C11.1309 16.2662 11.5997 17.7478 11.7503 18.1161C10.8631 19.0954 10.4445 19.8571 10.4445 21.3806C10.4445 26.7042 13.5668 27.1563 16.6639 27.4994C16.2621 27.8594 15.9021 28.4788 15.7766 29.3661C14.9814 29.726 12.9473 30.3454 11.7336 28.2026C10.9719 26.88 9.59912 26.7712 9.59912 26.7712C8.24309 26.7545 9.50705 27.625 9.50705 27.625C10.4111 28.0435 11.0472 29.6507 11.0472 29.6507C11.8592 32.1367 15.7431 31.2997 15.7431 31.2997C15.7431 32.053 15.7515 33.1161 15.7515 33.861C15.7515 34.2628 15.7598 34.5809 15.7598 34.6981C15.7598 35.058 15.5087 35.4933 14.7972 35.3677C9.27267 33.5179 5.40548 28.2612 5.40548 22.1172C5.40548 14.433 11.2816 8.59877 18.9658 8.59877C26.6499 8.59877 32.8776 14.433 32.8776 22.1172C32.886 28.2612 29.136 33.5262 23.6114 35.3677C22.9083 35.4933 22.6488 35.058 22.6488 34.6981ZM15.0735 30.111C15.0567 29.9855 15.1655 29.8767 15.3246 29.8432C15.4836 29.8265 15.6343 29.8934 15.651 30.0022C15.6761 30.111 15.5673 30.2199 15.3999 30.2533C15.2409 30.2868 15.0902 30.2199 15.0735 30.111ZM14.3117 30.3789C14.1276 30.3956 14.002 30.3036 14.002 30.178C14.002 30.0692 14.1276 29.9771 14.295 29.9771C14.454 29.9604 14.6047 30.0525 14.6047 30.178C14.6047 30.2868 14.4791 30.3789 14.3117 30.3789ZM13.1147 30.1948C12.9557 30.1613 12.8469 30.0357 12.8804 29.9269C12.9139 29.8181 13.0813 29.7679 13.2236 29.8013C13.391 29.8516 13.4998 29.9771 13.4579 30.0859C13.4245 30.1948 13.257 30.245 13.1147 30.1948ZM12.0684 29.5837C11.9429 29.4749 11.9094 29.3158 11.9931 29.2405C12.0684 29.1484 12.2275 29.1652 12.353 29.2907C12.4618 29.3996 12.5037 29.567 12.4284 29.6339C12.353 29.726 12.194 29.7093 12.0684 29.5837ZM11.3569 28.7467C11.2649 28.6211 11.2649 28.4788 11.3569 28.4202C11.449 28.3449 11.5913 28.4035 11.6666 28.529C11.7587 28.6546 11.7587 28.8052 11.6666 28.8722C11.5913 28.9224 11.449 28.8722 11.3569 28.7467ZM10.8296 28.01C10.7375 27.9012 10.7208 27.7757 10.7961 27.7171C10.8714 27.6417 10.997 27.6836 11.0891 27.7673C11.1812 27.8761 11.1979 28.0017 11.1226 28.0603C11.0472 28.1356 10.9217 28.0938 10.8296 28.01ZM10.3274 27.4743C10.2185 27.4241 10.1683 27.332 10.2018 27.2567C10.2353 27.2065 10.3274 27.1814 10.4362 27.2232C10.545 27.2818 10.5952 27.3739 10.5617 27.4408C10.5283 27.5162 10.4194 27.5329 10.3274 27.4743Z" fill="#202020"/>
</svg>
