<svg width="39" height="40" viewBox="0 0 39 40" fill="none" xmlns="http://www.w3.org/2000/svg">
<path d="M30.146 1.41973C22.9042 0.617496 15.596 0.617496 8.35429 1.41973C4.39804 1.86139 1.20846 4.97598 0.743875 8.94681C-0.114495 16.2906 -0.114495 23.7093 0.743875 31.0531C1.20846 35.0218 4.39804 38.1364 8.35429 38.5801C15.5967 39.3825 22.9056 39.3825 30.148 38.5801C34.1022 38.1364 37.2918 35.0218 37.7564 31.051C38.6146 23.7079 38.6146 16.2899 37.7564 8.94681C37.2918 4.97598 34.1022 1.86139 30.146 1.41973Z" fill="#202020"/>
<path d="M11.5 12C11.5 10.9391 11.9214 9.92172 12.6716 9.17157C13.4217 8.42143 14.4391 8 15.5 8H19.5V16H15.5C14.4391 16 13.4217 15.5786 12.6716 14.8284C11.9214 14.0783 11.5 13.0609 11.5 12ZM11.5 20C11.5 18.9391 11.9214 17.9217 12.6716 17.1716C13.4217 16.4214 14.4391 16 15.5 16H19.5V24H15.5C14.4391 24 13.4217 23.5786 12.6716 22.8284C11.9214 22.0783 11.5 21.0609 11.5 20ZM11.5 28C11.5 26.9391 11.9214 25.9217 12.6716 25.1716C13.4217 24.4214 14.4391 24 15.5 24H19.5V28C19.5 29.0609 19.0786 30.0783 18.3284 30.8284C17.5783 31.5786 16.5609 32 15.5 32C14.4391 32 13.4217 31.5786 12.6716 30.8284C11.9214 30.0783 11.5 29.0609 11.5 28ZM19.5 8H23.5C24.5609 8 25.5783 8.42143 26.3284 9.17157C27.0786 9.92172 27.5 10.9391 27.5 12C27.5 13.0609 27.0786 14.0783 26.3284 14.8284C25.5783 15.5786 24.5609 16 23.5 16H19.5V8Z" fill="white"/>
<path d="M19.5 8H15.5C14.4391 8 13.4217 8.42143 12.6716 9.17157C11.9214 9.92172 11.5 10.9391 11.5 12C11.5 13.0609 11.9214 14.0783 12.6716 14.8284C13.4217 15.5786 14.4391 16 15.5 16M19.5 8V16M19.5 8H23.5C24.5609 8 25.5783 8.42143 26.3284 9.17157C27.0786 9.92172 27.5 10.9391 27.5 12C27.5 13.0609 27.0786 14.0783 26.3284 14.8284C25.5783 15.5786 24.5609 16 23.5 16H19.5M19.5 16H15.5M19.5 16V24M15.5 16C14.4391 16 13.4217 16.4214 12.6716 17.1716C11.9214 17.9217 11.5 18.9391 11.5 20C11.5 21.0609 11.9214 22.0783 12.6716 22.8284C13.4217 23.5786 14.4391 24 15.5 24M19.5 24H15.5M19.5 24V28C19.5 29.0609 19.0786 30.0783 18.3284 30.8284C17.5783 31.5786 16.5609 32 15.5 32C14.4391 32 13.4217 31.5786 12.6716 30.8284C11.9214 30.0783 11.5 29.0609 11.5 28C11.5 26.9391 11.9214 25.9217 12.6716 25.1716C13.4217 24.4214 14.4391 24 15.5 24" stroke="black" stroke-width="1.28" stroke-linejoin="round"/>
<path d="M19.5 20C19.5 18.9391 19.9214 17.9217 20.6716 17.1716C21.4217 16.4214 22.4391 16 23.5 16C24.5609 16 25.5783 16.4214 26.3284 17.1716C27.0786 17.9217 27.5 18.9391 27.5 20C27.5 21.0609 27.0786 22.0783 26.3284 22.8284C25.5783 23.5786 24.5609 24 23.5 24C22.4391 24 21.4217 23.5786 20.6716 22.8284C19.9214 22.0783 19.5 21.0609 19.5 20Z" fill="white" stroke="black" stroke-width="1.28" stroke-linejoin="round"/>
</svg>
