<svg width="40" height="50" viewBox="0 0 40 50" fill="none" xmlns="http://www.w3.org/2000/svg">
<path d="M16.2584 18.8854C15.4793 18.8854 14.9293 18.9542 14.6313 19.0229V24.2479C14.9751 24.3396 15.4334 24.3625 16.0063 24.3625C18.1147 24.3625 19.398 23.3313 19.398 21.5209C19.398 19.8021 18.2063 18.8854 16.2584 18.8854Z" fill="#202020"/>
<path fill-rule="evenodd" clip-rule="evenodd" d="M9.20415 6.42083C16.4459 5.6186 23.7541 5.6186 30.9958 6.42083C34.9521 6.86249 38.1416 9.97708 38.6062 13.9479C39.4644 21.291 39.4644 28.709 38.6062 36.0521C38.1416 40.0229 34.9521 43.1375 30.9979 43.5812C23.7555 44.3836 16.4466 44.3836 9.20415 43.5812C5.2479 43.1375 2.05831 40.0229 1.59373 36.0542C0.735359 28.7104 0.735359 21.2917 1.59373 13.9479C2.05831 9.97708 5.2479 6.86249 9.20415 6.42083ZM14.6312 32.2917H11.8354V17.0521C12.8437 16.8687 14.2416 16.7312 16.1437 16.7312C18.2062 16.7312 19.7187 17.1667 20.7041 17.9917C21.6208 18.7479 22.2166 19.9625 22.2166 21.4062C22.2166 22.8729 21.7583 24.0875 20.8875 24.9125C19.7625 26.0354 18 26.5625 16.0062 26.5625C15.4791 26.5625 14.9979 26.5396 14.6312 26.4708V32.2917ZM26.1541 32.2917H23.3354V24.7292C23.3354 23.2167 23.3146 22.1396 23.2437 21.1312H25.6958L25.7875 23.2625H25.8791C26.4291 21.6812 27.7354 20.8792 28.9271 20.8792C29.2021 20.8792 29.3646 20.9021 29.5937 20.9479V23.6062C29.3218 23.5482 29.0447 23.5175 28.7666 23.5146C27.4146 23.5146 26.4979 24.3854 26.2458 25.6458C26.1887 25.9327 26.1581 26.2242 26.1541 26.5167V32.2917Z" fill="#202020"/>
</svg>
