<svg width="40" height="50" viewBox="0 0 40 50" fill="none" xmlns="http://www.w3.org/2000/svg">
<path d="M24.8959 28.2813C24.9646 28.0292 24.9876 27.7542 24.9876 27.4563V25.7834C24.9876 25.5542 24.9667 25.2792 24.9188 25.05C24.6688 23.95 23.773 23.0563 22.4896 23.0563C20.6792 23.0563 19.6709 24.6604 19.6709 26.7459C19.6709 28.7854 20.6792 30.275 22.4667 30.275C23.6126 30.275 24.6209 29.4959 24.8959 28.2813Z" fill="#202020"/>
<path fill-rule="evenodd" clip-rule="evenodd" d="M9.20415 6.42083C16.4459 5.6186 23.7541 5.6186 30.9958 6.42083C34.9521 6.86249 38.1416 9.97708 38.6062 13.9479C39.4644 21.291 39.4644 28.709 38.6062 36.0521C38.1416 40.0229 34.9521 43.1375 30.9979 43.5812C23.7555 44.3836 16.4466 44.3836 9.20415 43.5812C5.2479 43.1375 2.05831 40.0229 1.59373 36.0542C0.735359 28.7104 0.735359 21.2917 1.59373 13.9479C2.05831 9.97708 5.2479 6.86249 9.20415 6.42083ZM24.9875 22.3458V16.0208H27.8083V29.1521C27.8083 30.2979 27.8541 31.5354 27.9 32.2917H25.3791L25.2646 30.5271H25.2187C24.5541 31.7646 23.2021 32.5437 21.575 32.5437C18.9166 32.5437 16.8083 30.275 16.8083 26.8375C16.7875 23.1021 19.1229 20.8792 21.8041 20.8792C23.3396 20.8792 24.4396 21.5208 24.9437 22.3458H24.9875ZM12.5062 32.2917V16.8458H15.325V32.2917H12.5062Z" fill="#202020"/>
</svg>
