<svg width="39" height="40" viewBox="0 0 39 40" fill="none" xmlns="http://www.w3.org/2000/svg">
<path fill-rule="evenodd" clip-rule="evenodd" d="M8.35429 1.41973C15.596 0.617496 22.9042 0.617496 30.146 1.41973C34.1022 1.86139 37.2918 4.97598 37.7564 8.94681C38.6146 16.2899 38.6146 23.7079 37.7564 31.051C37.2918 35.0218 34.1022 38.1364 30.148 38.5801C22.9056 39.3825 15.5967 39.3825 8.35429 38.5801C4.39804 38.1364 1.20846 35.0218 0.743875 31.0531C-0.114495 23.7093 -0.114495 16.2906 0.743875 8.94681C1.20846 4.97598 4.39804 1.86139 8.35429 1.41973ZM13.198 27.2906H10.4022V12.051C11.4105 11.8676 12.8085 11.7301 14.7105 11.7301C16.773 11.7301 18.2855 12.1656 19.273 12.9906C20.1897 13.7468 20.7835 14.9614 20.7835 16.4051C20.7835 17.8718 20.3251 19.0864 19.4543 19.9114C18.3314 21.0343 16.5668 21.5614 14.573 21.5614C14.046 21.5614 13.5647 21.5385 13.198 21.4697V27.2906ZM24.3855 27.5426C23.0314 27.5426 21.8189 27.1989 20.9939 26.7406L21.5439 24.701C22.1855 25.0906 23.398 25.5031 24.4085 25.5031C25.646 25.5031 26.196 24.9989 26.196 24.2656C26.196 23.5093 25.7376 23.1197 24.3626 22.6385C22.1855 21.8822 21.2689 20.6906 21.2918 19.3843C21.2918 17.4135 22.9168 15.8781 25.5085 15.8781C26.746 15.8781 27.821 16.1989 28.4647 16.5426L27.9147 18.5364C27.1932 18.1304 26.3821 17.9099 25.5543 17.8947C24.546 17.8947 23.996 18.376 23.996 19.0635C23.996 19.7739 24.523 20.1176 25.9439 20.6218C27.9605 21.3551 28.9001 22.3864 28.923 24.0364C28.923 26.0531 27.3397 27.5426 24.3855 27.5426Z" fill="#202020"/>
<path d="M14.7949 14.0228C14.0111 14.0228 13.4578 14.0921 13.1602 14.1613V19.4244C13.5039 19.5167 13.965 19.5398 14.5434 19.5398C16.6623 19.5398 17.9533 18.501 17.9533 16.6774C17.9533 14.9462 16.7545 14.0228 14.7949 14.0228Z" fill="#202020"/>
</svg>
